<svg id="light" enable-background="new 0 0 24 24" height="512" viewBox="0 0 24 24" width="512" xmlns="http://www.w3.org/2000/svg"><g><path d="m21.5 22h-19c-1.4 0-2.5-1.1-2.5-2.5v-12c0-1.4 1.1-2.5 2.5-2.5h19c1.4 0 2.5 1.1 2.5 2.5v12c0 1.4-1.1 2.5-2.5 2.5zm-19-16c-.8 0-1.5.7-1.5 1.5v12c0 .8.7 1.5 1.5 1.5h19c.8 0 1.5-.7 1.5-1.5v-12c0-.8-.7-1.5-1.5-1.5z"/></g><g><path d="m15.5 6c-.3 0-.5-.2-.5-.5v-2c0-.3-.2-.5-.5-.5h-5c-.3 0-.5.2-.5.5v2c0 .3-.2.5-.5.5s-.5-.2-.5-.5v-2c0-.8.7-1.5 1.5-1.5h5c.8 0 1.5.7 1.5 1.5v2c0 .3-.2.5-.5.5z"/></g><g><path d="m23.5 12h-23c-.3 0-.5-.2-.5-.5s.2-.5.5-.5h23c.3 0 .5.2.5.5s-.2.5-.5.5z"/></g><g><path d="m6.5 14.2c-.3 0-.5-.2-.5-.5v-4.2c0-.3.2-.5.5-.5s.5.2.5.5v4.2c0 .2-.2.5-.5.5z"/></g><g><path d="m17.5 14.2c-.3 0-.5-.2-.5-.5v-4.2c0-.3.2-.5.5-.5s.5.2.5.5v4.2c0 .2-.2.5-.5.5z"/></g></svg>